<mxfile host="65bd71144e">
    <diagram id="JQGTRIYENymbrrIv630-" name="最終修正版シーケンス図">
        <mxGraphModel dx="1657" dy="625" grid="1" gridSize="10" guides="1" tooltips="1" connect="1" arrows="1" fold="1" page="1" pageScale="1" pageWidth="900" pageHeight="1600" background="#ffffff" math="0" shadow="0">
            <root>
                <mxCell id="0"/>
                <mxCell id="1" parent="0"/>
                <mxCell id="191" value="loop [10分ごと]" style="shape=umlFrame;whiteSpace=wrap;html=1;" vertex="1" parent="1">
                    <mxGeometry x="500" y="870" width="580" height="640" as="geometry"/>
                </mxCell>
                <mxCell id="196" value="alt" style="shape=umlFrame;whiteSpace=wrap;html=1;" vertex="1" parent="1">
                    <mxGeometry x="720" y="1060" width="350" height="400" as="geometry"/>
                </mxCell>
                <mxCell id="155" value="Webアプリ" style="shape=umlLifeline;perimeter=lifelinePerimeter;whiteSpace=wrap;html=1;container=1;collapsible=0;recursiveResize=0;outlineConnect=0;" vertex="1" parent="1">
                    <mxGeometry x="80" y="40" width="100" height="1720" as="geometry"/>
                </mxCell>
                <mxCell id="156" value="" style="shape=umlActivation;whiteSpace=wrap;html=1;" vertex="1" parent="155">
                    <mxGeometry x="45" y="70" width="10" height="340" as="geometry"/>
                </mxCell>
                <mxCell id="157" value="" style="shape=umlActivation;whiteSpace=wrap;html=1;" vertex="1" parent="155">
                    <mxGeometry x="45" y="440" width="10" height="140" as="geometry"/>
                </mxCell>
                <mxCell id="158" value="" style="shape=umlActivation;whiteSpace=wrap;html=1;" vertex="1" parent="155">
                    <mxGeometry x="45" y="620" width="10" height="140" as="geometry"/>
                </mxCell>
                <mxCell id="222" value="" style="shape=umlActivation;whiteSpace=wrap;html=1;" vertex="1" parent="155">
                    <mxGeometry x="45" y="1550" width="10" height="140" as="geometry"/>
                </mxCell>
                <mxCell id="159" value="slackアプリ" style="shape=umlLifeline;perimeter=lifelinePerimeter;whiteSpace=wrap;html=1;container=1;collapsible=0;recursiveResize=0;outlineConnect=0;" vertex="1" parent="1">
                    <mxGeometry x="300" y="40" width="100" height="1720" as="geometry"/>
                </mxCell>
                <mxCell id="160" value="ラズパイ" style="shape=umlLifeline;perimeter=lifelinePerimeter;whiteSpace=wrap;html=1;container=1;collapsible=0;recursiveResize=0;outlineConnect=0;" vertex="1" parent="1">
                    <mxGeometry x="520" y="40" width="100" height="1720" as="geometry"/>
                </mxCell>
                <mxCell id="161" value="" style="shape=umlActivation;whiteSpace=wrap;html=1;" vertex="1" parent="160">
                    <mxGeometry x="45" y="870" width="10" height="600" as="geometry"/>
                </mxCell>
                <mxCell id="189" value="認証トークン発行・返却" style="html=1;endArrow=open;dashed=1;" edge="1" parent="160">
                    <mxGeometry relative="1" as="geometry">
                        <mxPoint x="265" y="720" as="sourcePoint"/>
                        <mxPoint x="-380" y="720" as="targetPoint"/>
                    </mxGeometry>
                </mxCell>
                <mxCell id="186" value="ログイン情報(ID, Pass)送信" style="html=1;endArrow=block;" edge="1" parent="160">
                    <mxGeometry relative="1" as="geometry">
                        <mxPoint x="-380" y="650" as="sourcePoint"/>
                        <mxPoint x="265" y="650" as="targetPoint"/>
                    </mxGeometry>
                </mxCell>
                <mxCell id="162" value="サーバー" style="shape=umlLifeline;perimeter=lifelinePerimeter;whiteSpace=wrap;html=1;container=1;collapsible=0;recursiveResize=0;outlineConnect=0;" vertex="1" parent="1">
                    <mxGeometry x="740" y="40" width="100" height="1720" as="geometry"/>
                </mxCell>
                <mxCell id="163" value="" style="shape=umlActivation;whiteSpace=wrap;html=1;" vertex="1" parent="162">
                    <mxGeometry x="45" y="70" width="10" height="340" as="geometry"/>
                </mxCell>
                <mxCell id="164" value="" style="shape=umlActivation;whiteSpace=wrap;html=1;" vertex="1" parent="162">
                    <mxGeometry x="45" y="440" width="10" height="140" as="geometry"/>
                </mxCell>
                <mxCell id="165" value="" style="shape=umlActivation;whiteSpace=wrap;html=1;" vertex="1" parent="162">
                    <mxGeometry x="45" y="610" width="10" height="160" as="geometry"/>
                </mxCell>
                <mxCell id="166" value="" style="shape=umlActivation;whiteSpace=wrap;html=1;" vertex="1" parent="162">
                    <mxGeometry x="45" y="866" width="10" height="590" as="geometry"/>
                </mxCell>
                <mxCell id="187" value="" style="html=1;endArrow=block;" edge="1" parent="162">
                    <mxGeometry x="0.098" y="-30" relative="1" as="geometry">
                        <mxPoint x="60" y="680" as="sourcePoint"/>
                        <mxPoint x="265" y="680" as="targetPoint"/>
                        <mxPoint as="offset"/>
                    </mxGeometry>
                </mxCell>
                <mxCell id="210" value="ユーザー情報照合" style="edgeLabel;html=1;align=center;verticalAlign=middle;resizable=0;points=[];" vertex="1" connectable="0" parent="187">
                    <mxGeometry x="0.0405" y="-1" relative="1" as="geometry">
                        <mxPoint as="offset"/>
                    </mxGeometry>
                </mxCell>
                <mxCell id="193" value="DBから全ユーザーの顔特徴量を取得" style="html=1;endArrow=block;entryX=-0.133;entryY=0.185;entryDx=0;entryDy=0;entryPerimeter=0;" edge="1" parent="162" target="172">
                    <mxGeometry relative="1" as="geometry">
                        <mxPoint x="55" y="1088.6381818181817" as="sourcePoint"/>
                        <mxPoint x="265" y="1060.001818181818" as="targetPoint"/>
                    </mxGeometry>
                </mxCell>
                <mxCell id="223" value="" style="shape=umlActivation;whiteSpace=wrap;html=1;" vertex="1" parent="162">
                    <mxGeometry x="45" y="1550" width="10" height="140" as="geometry"/>
                </mxCell>
                <mxCell id="167" value="DB" style="shape=umlLifeline;perimeter=lifelinePerimeter;whiteSpace=wrap;html=1;container=1;collapsible=0;recursiveResize=0;outlineConnect=0;" vertex="1" parent="1">
                    <mxGeometry x="960" y="40" width="100" height="1720" as="geometry"/>
                </mxCell>
                <mxCell id="168" value="" style="shape=umlActivation;whiteSpace=wrap;html=1;" vertex="1" parent="167">
                    <mxGeometry x="45" y="100" width="10" height="50" as="geometry"/>
                </mxCell>
                <mxCell id="169" value="" style="shape=umlActivation;whiteSpace=wrap;html=1;" vertex="1" parent="167">
                    <mxGeometry x="45" y="215" width="10" height="50" as="geometry"/>
                </mxCell>
                <mxCell id="170" value="" style="shape=umlActivation;whiteSpace=wrap;html=1;" vertex="1" parent="167">
                    <mxGeometry x="45" y="490" width="10" height="40" as="geometry"/>
                </mxCell>
                <mxCell id="171" value="" style="shape=umlActivation;whiteSpace=wrap;html=1;" vertex="1" parent="167">
                    <mxGeometry x="45" y="665" width="10" height="50" as="geometry"/>
                </mxCell>
                <mxCell id="172" value="" style="shape=umlActivation;whiteSpace=wrap;html=1;" vertex="1" parent="167">
                    <mxGeometry x="45" y="1050" width="10" height="200" as="geometry"/>
                </mxCell>
                <mxCell id="194" value="顔特徴量リストを返却" style="html=1;endArrow=open;dashed=1;exitX=-0.133;exitY=0.385;exitDx=0;exitDy=0;exitPerimeter=0;" edge="1" parent="167" source="172">
                    <mxGeometry relative="1" as="geometry">
                        <mxPoint x="45" y="1100.001818181818" as="sourcePoint"/>
                        <mxPoint x="-165" y="1128.6381818181817" as="targetPoint"/>
                    </mxGeometry>
                </mxCell>
                <mxCell id="225" value="" style="shape=umlActivation;whiteSpace=wrap;html=1;" vertex="1" parent="167">
                    <mxGeometry x="45" y="1580" width="10" height="100" as="geometry"/>
                </mxCell>
                <mxCell id="226" value="" style="html=1;endArrow=block;" edge="1" parent="167">
                    <mxGeometry x="0.098" y="-30" relative="1" as="geometry">
                        <mxPoint x="-160" y="1590" as="sourcePoint"/>
                        <mxPoint x="45" y="1590" as="targetPoint"/>
                        <mxPoint as="offset"/>
                    </mxGeometry>
                </mxCell>
                <mxCell id="227" value="seatテーブル取得" style="edgeLabel;html=1;align=center;verticalAlign=middle;resizable=0;points=[];" vertex="1" connectable="0" parent="226">
                    <mxGeometry x="0.0405" y="-1" relative="1" as="geometry">
                        <mxPoint as="offset"/>
                    </mxGeometry>
                </mxCell>
                <mxCell id="173" value="【シナリオ1：ユーザー新規登録と顔情報登録】" style="text;html=1;align=left;fontSize=14;fontStyle=1" vertex="1" parent="1">
                    <mxGeometry x="81" y="81" width="410" height="30" as="geometry"/>
                </mxCell>
                <mxCell id="175" value="ユーザーテーブル登録" style="html=1;endArrow=block;" edge="1" parent="1" source="162" target="168">
                    <mxGeometry relative="1" as="geometry"/>
                </mxCell>
                <mxCell id="178" value="顔特徴量を抽出" style="html=1;endArrow=block;" edge="1" parent="1" source="163" target="163">
                    <mxGeometry x="-1" y="20" relative="1" as="geometry"/>
                </mxCell>
                <mxCell id="179" value="顔特徴量をユーザーに紐づけ更新" style="html=1;endArrow=block;" edge="1" parent="1" source="163" target="169">
                    <mxGeometry relative="1" as="geometry"/>
                </mxCell>
                <mxCell id="181" value="【シナリオ2：管理者によるデバイス登録】" style="text;html=1;align=left;fontSize=14;fontStyle=1" vertex="1" parent="1">
                    <mxGeometry x="83" y="455" width="410" height="30" as="geometry"/>
                </mxCell>
                <mxCell id="182" value="ラズパイ登録 (device_id, seat_id) 送信" style="html=1;endArrow=block;" edge="1" parent="1">
                    <mxGeometry relative="1" as="geometry">
                        <mxPoint x="135" y="511.0000000000002" as="sourcePoint"/>
                        <mxPoint x="785" y="511.0000000000002" as="targetPoint"/>
                    </mxGeometry>
                </mxCell>
                <mxCell id="183" value="デバイステーブル登録" style="html=1;endArrow=block;" edge="1" parent="1" source="164" target="170">
                    <mxGeometry relative="1" as="geometry"/>
                </mxCell>
                <mxCell id="184" value="" style="html=1;endArrow=open;dashed=1;" edge="1" parent="1">
                    <mxGeometry x="0.0154" y="60" relative="1" as="geometry">
                        <mxPoint x="785.4999999999995" y="590.9999999999998" as="sourcePoint"/>
                        <mxPoint x="136" y="591" as="targetPoint"/>
                        <mxPoint as="offset"/>
                    </mxGeometry>
                </mxCell>
                <mxCell id="209" value="登録完了200" style="edgeLabel;html=1;align=center;verticalAlign=middle;resizable=0;points=[];" vertex="1" connectable="0" parent="184">
                    <mxGeometry x="-0.0099" y="1" relative="1" as="geometry">
                        <mxPoint as="offset"/>
                    </mxGeometry>
                </mxCell>
                <mxCell id="185" value="【シナリオ3：ユーザーログイン】" style="text;html=1;align=left;fontSize=14;fontStyle=1" vertex="1" parent="1">
                    <mxGeometry x="120" y="630" width="230" height="30" as="geometry"/>
                </mxCell>
                <mxCell id="188" value="" style="html=1;endArrow=open;dashed=1;" edge="1" parent="1">
                    <mxGeometry x="-0.0196" y="40" relative="1" as="geometry">
                        <mxPoint x="1005" y="750" as="sourcePoint"/>
                        <mxPoint x="800" y="750" as="targetPoint"/>
                        <mxPoint x="1" as="offset"/>
                    </mxGeometry>
                </mxCell>
                <mxCell id="211" value="認証OK/NG" style="edgeLabel;html=1;align=center;verticalAlign=middle;resizable=0;points=[];" vertex="1" connectable="0" parent="188">
                    <mxGeometry x="0.0989" y="1" relative="1" as="geometry">
                        <mxPoint as="offset"/>
                    </mxGeometry>
                </mxCell>
                <mxCell id="190" value="【シナリオ4：顔認証による座席ステータス更新】" style="text;html=1;align=left;fontSize=14;fontStyle=1" vertex="1" parent="1">
                    <mxGeometry x="70" y="831" width="410" height="30" as="geometry"/>
                </mxCell>
                <mxCell id="192" value="顔写真送信" style="html=1;endArrow=block;entryX=0.171;entryY=0.262;entryDx=0;entryDy=0;entryPerimeter=0;" edge="1" parent="1">
                    <mxGeometry relative="1" as="geometry">
                        <mxPoint x="580" y="1120" as="sourcePoint"/>
                        <mxPoint x="779.8499999999999" y="1120.1799999999998" as="targetPoint"/>
                    </mxGeometry>
                </mxCell>
                <mxCell id="195" value="" style="html=1;endArrow=block;elbow=vertical;" edge="1" parent="1" source="166" target="166">
                    <mxGeometry x="-1" y="20" relative="1" as="geometry">
                        <mxPoint as="offset"/>
                    </mxGeometry>
                </mxCell>
                <mxCell id="217" value="&lt;span style=&quot;color: rgb(0, 0, 0);&quot;&gt;サーバー内で顔認証&lt;/span&gt;" style="edgeLabel;html=1;align=center;verticalAlign=middle;resizable=0;points=[];" vertex="1" connectable="0" parent="195">
                    <mxGeometry x="-0.4577" y="-2" relative="1" as="geometry">
                        <mxPoint as="offset"/>
                    </mxGeometry>
                </mxCell>
                <mxCell id="197" value="[認証成功]" style="text;html=1;align=left;" vertex="1" parent="1">
                    <mxGeometry x="723" y="1090" width="100" height="30" as="geometry"/>
                </mxCell>
                <mxCell id="199" value="Slackステータス更新 (在席中)" style="html=1;endArrow=block;exitX=0.283;exitY=0.52;exitDx=0;exitDy=0;exitPerimeter=0;" edge="1" parent="1" source="166">
                    <mxGeometry relative="1" as="geometry">
                        <mxPoint x="740" y="1210.0000000000002" as="sourcePoint"/>
                        <mxPoint x="349.25" y="1210.0000000000002" as="targetPoint"/>
                    </mxGeometry>
                </mxCell>
                <mxCell id="200" value="200 OK" style="html=1;endArrow=open;dashed=1;exitX=0.318;exitY=0.585;exitDx=0;exitDy=0;exitPerimeter=0;" edge="1" parent="1" source="166">
                    <mxGeometry relative="1" as="geometry">
                        <mxPoint x="740" y="1250.0000000000002" as="sourcePoint"/>
                        <mxPoint x="580" y="1250" as="targetPoint"/>
                    </mxGeometry>
                </mxCell>
                <mxCell id="201" value="" style="line;strokeWidth=1;dashed=1;" vertex="1" parent="1">
                    <mxGeometry x="720" y="1290" width="350" height="10" as="geometry"/>
                </mxCell>
                <mxCell id="202" value="[認証失敗 (not found)]" style="text;html=1;align=left;" vertex="1" parent="1">
                    <mxGeometry x="724" y="1300" width="160" height="30" as="geometry"/>
                </mxCell>
                <mxCell id="204" value="Slackステータスをクリア" style="html=1;endArrow=block;exitX=0.171;exitY=0.816;exitDx=0;exitDy=0;exitPerimeter=0;" edge="1" parent="1">
                    <mxGeometry x="-0.0019" relative="1" as="geometry">
                        <mxPoint x="782.8499999999999" y="1390.08" as="sourcePoint"/>
                        <mxPoint x="352.25" y="1390.0000000000002" as="targetPoint"/>
                        <mxPoint as="offset"/>
                    </mxGeometry>
                </mxCell>
                <mxCell id="205" value="" style="html=1;endArrow=open;dashed=1;exitX=0.318;exitY=0.736;exitDx=0;exitDy=0;exitPerimeter=0;" edge="1" parent="1" source="166">
                    <mxGeometry x="0.3333" y="80" relative="1" as="geometry">
                        <mxPoint x="740" y="1340" as="sourcePoint"/>
                        <mxPoint x="580" y="1340" as="targetPoint"/>
                        <mxPoint as="offset"/>
                    </mxGeometry>
                </mxCell>
                <mxCell id="215" value="&lt;span style=&quot;color: rgb(0, 0, 0);&quot;&gt;401 Unauthorized&lt;/span&gt;" style="edgeLabel;html=1;align=center;verticalAlign=middle;resizable=0;points=[];" vertex="1" connectable="0" parent="205">
                    <mxGeometry x="0.369" y="-1" relative="1" as="geometry">
                        <mxPoint x="40" as="offset"/>
                    </mxGeometry>
                </mxCell>
                <mxCell id="176" value="" style="html=1;endArrow=open;dashed=1;" edge="1" parent="1">
                    <mxGeometry x="0.1077" y="40" relative="1" as="geometry">
                        <mxPoint x="784.5" y="200" as="sourcePoint"/>
                        <mxPoint x="135" y="200" as="targetPoint"/>
                        <mxPoint as="offset"/>
                    </mxGeometry>
                </mxCell>
                <mxCell id="213" value="登録完了200" style="edgeLabel;html=1;align=center;verticalAlign=middle;resizable=0;points=[];" vertex="1" connectable="0" parent="176">
                    <mxGeometry x="0.1251" y="1" relative="1" as="geometry">
                        <mxPoint x="50" as="offset"/>
                    </mxGeometry>
                </mxCell>
                <mxCell id="180" value="" style="html=1;endArrow=open;dashed=1;" edge="1" parent="1">
                    <mxGeometry x="-0.0154" y="70" relative="1" as="geometry">
                        <mxPoint x="786.4999999999995" y="310" as="sourcePoint"/>
                        <mxPoint x="137" y="310" as="targetPoint"/>
                        <Array as="points">
                            <mxPoint x="397" y="310"/>
                        </Array>
                        <mxPoint as="offset"/>
                    </mxGeometry>
                </mxCell>
                <mxCell id="214" value="登録完了(200)" style="edgeLabel;html=1;align=center;verticalAlign=middle;resizable=0;points=[];" vertex="1" connectable="0" parent="180">
                    <mxGeometry x="-0.0114" y="-2" relative="1" as="geometry">
                        <mxPoint x="1" as="offset"/>
                    </mxGeometry>
                </mxCell>
                <mxCell id="203" value="seatテーブル更新 (離席)" style="html=1;endArrow=block;exitX=1.033;exitY=0.616;exitDx=0;exitDy=0;exitPerimeter=0;entryX=-0.133;entryY=0.893;entryDx=0;entryDy=0;entryPerimeter=0;" edge="1" parent="1" source="166" target="172">
                    <mxGeometry relative="1" as="geometry">
                        <mxPoint x="795" y="1276.8190909090908" as="sourcePoint"/>
                        <mxPoint x="1005" y="1210.0009090909093" as="targetPoint"/>
                    </mxGeometry>
                </mxCell>
                <mxCell id="198" value="seatテーブル更新 (着席, user_id)" style="html=1;endArrow=block;entryX=-0.217;entryY=0.727;entryDx=0;entryDy=0;entryPerimeter=0;" edge="1" parent="1" target="172">
                    <mxGeometry relative="1" as="geometry">
                        <mxPoint x="795" y="1236.8190909090908" as="sourcePoint"/>
                        <mxPoint x="1005" y="1170.0009090909093" as="targetPoint"/>
                    </mxGeometry>
                </mxCell>
                <mxCell id="219" value="200 OK" style="html=1;endArrow=open;dashed=1;exitX=0.318;exitY=0.585;exitDx=0;exitDy=0;exitPerimeter=0;" edge="1" parent="1">
                    <mxGeometry relative="1" as="geometry">
                        <mxPoint x="788" y="1281" as="sourcePoint"/>
                        <mxPoint x="580" y="1280" as="targetPoint"/>
                    </mxGeometry>
                </mxCell>
                <mxCell id="221" value="【シナリオ5：webインターフェース上からのアクセス】" style="text;html=1;align=left;fontSize=14;fontStyle=1" vertex="1" parent="1">
                    <mxGeometry x="60" y="1520" width="410" height="30" as="geometry"/>
                </mxCell>
                <mxCell id="224" value="ユーザーの着席状況取得" style="html=1;endArrow=block;exitX=0.5;exitY=0.136;exitDx=0;exitDy=0;exitPerimeter=0;entryX=0.125;entryY=0.154;entryDx=0;entryDy=0;entryPerimeter=0;" edge="1" parent="1" source="222" target="223">
                    <mxGeometry x="0.0019" relative="1" as="geometry">
                        <mxPoint x="140" y="1610" as="sourcePoint"/>
                        <mxPoint x="785" y="1610" as="targetPoint"/>
                        <mxPoint as="offset"/>
                    </mxGeometry>
                </mxCell>
                <mxCell id="230" value="" style="html=1;endArrow=open;dashed=1;" edge="1" parent="1">
                    <mxGeometry x="-0.0196" y="40" relative="1" as="geometry">
                        <mxPoint x="1005" y="1690" as="sourcePoint"/>
                        <mxPoint x="800" y="1690" as="targetPoint"/>
                        <mxPoint x="1" as="offset"/>
                    </mxGeometry>
                </mxCell>
                <mxCell id="231" value="seat情報返却" style="edgeLabel;html=1;align=center;verticalAlign=middle;resizable=0;points=[];" vertex="1" connectable="0" parent="230">
                    <mxGeometry x="0.0989" y="1" relative="1" as="geometry">
                        <mxPoint as="offset"/>
                    </mxGeometry>
                </mxCell>
                <mxCell id="233" value="" style="html=1;endArrow=open;dashed=1;exitX=0.375;exitY=0.814;exitDx=0;exitDy=0;exitPerimeter=0;" edge="1" parent="1" source="223">
                    <mxGeometry x="-0.0196" y="40" relative="1" as="geometry">
                        <mxPoint x="340" y="1700" as="sourcePoint"/>
                        <mxPoint x="135" y="1700" as="targetPoint"/>
                        <mxPoint x="1" as="offset"/>
                    </mxGeometry>
                </mxCell>
                <mxCell id="234" value="seat情報返却(JSON)" style="edgeLabel;html=1;align=center;verticalAlign=middle;resizable=0;points=[];" vertex="1" connectable="0" parent="233">
                    <mxGeometry x="0.0989" y="1" relative="1" as="geometry">
                        <mxPoint as="offset"/>
                    </mxGeometry>
                </mxCell>
                <mxCell id="174" value="新規ユーザー登録フォーム入力・送信" style="html=1;endArrow=block;" edge="1" parent="1">
                    <mxGeometry relative="1" as="geometry">
                        <mxPoint x="129" y="160" as="sourcePoint"/>
                        <mxPoint x="784" y="160" as="targetPoint"/>
                    </mxGeometry>
                </mxCell>
                <mxCell id="177" value="" style="html=1;endArrow=block;" edge="1" parent="1">
                    <mxGeometry x="-0.1073" y="-50" relative="1" as="geometry">
                        <mxPoint x="140" y="250" as="sourcePoint"/>
                        <mxPoint x="789.4999999999995" y="250" as="targetPoint"/>
                        <mxPoint as="offset"/>
                    </mxGeometry>
                </mxCell>
                <mxCell id="212" value="顔写真アップロード" style="edgeLabel;html=1;align=center;verticalAlign=middle;resizable=0;points=[];" vertex="1" connectable="0" parent="177">
                    <mxGeometry x="-0.0679" y="1" relative="1" as="geometry">
                        <mxPoint x="30" as="offset"/>
                    </mxGeometry>
                </mxCell>
            </root>
        </mxGraphModel>
    </diagram>
</mxfile>